<svg xmlns="http://www.w3.org/2000/svg" width="44.937" height="38.938" viewBox="0 0 44.937 38.938"><path d="M42.76,42.922a15.643,15.643,0,0,0-1.735-1.393,8.141,8.141,0,0,1-1.876,1.011,10.144,10.144,0,0,1-3.555.62q-.837.008-1.672.013h-.607q-1.779.014-3.558.013H29.72L22.5,43.142h-.065l-2.119.012-1.185.008-4.266.025h-.039q-1.866,0-3.731-.012H10.46L8.707,43.16l-.3-.007H0V48.9q.01.594.076,1.221c0,.005,0,.01,0,.015A8.684,8.684,0,0,0,.657,52.5a6.506,6.506,0,0,0,2.028,2.685,7.838,7.838,0,0,0,.99.659,9.138,9.138,0,0,0,2.115.861,10.326,10.326,0,0,0,2.314.337q1.458.05,2.916.074h.606q1.66.021,3.318-.005c2.688-.046,4.643,1.6,6.069,4.558a17.2,17.2,0,0,1,1.365,4.182c.013.069.038.135.091.316v0c.053-.181.078-.247.091-.316a17.18,17.18,0,0,1,1.365-4.182c1.426-2.957,3.382-4.6,6.069-4.558q1.659.029,3.318.005h.607q1.456-.021,2.914-.074a10.32,10.32,0,0,0,2.313-.337,9.114,9.114,0,0,0,2.115-.861,7.769,7.769,0,0,0,.99-.659A6.481,6.481,0,0,0,44.281,52.5a8.612,8.612,0,0,0,.58-2.374c.316-2.926-.324-5.392-2.1-7.2m-5.374,5.43a2.145,2.145,0,0,1-2.039,1.666H28.8V45.48h6.542a2.195,2.195,0,0,1,2.114,2.268,2.429,2.429,0,0,1-.075.6" transform="translate(-0.001 -27.232)" fill="#127003"/><path d="M43.77,6.3a6.7,6.7,0,0,0-2.694-4.611A8.232,8.232,0,0,0,39.148.646a10.177,10.177,0,0,0-3.555-.62Q34.755.018,33.92.013h-.607Q31.534,0,29.755,0h-.036L22.5.045h-.065L14.866,0h-.039Q12.961,0,11.1.013h-.637c-.585,0-1.169.008-1.753.014a11.132,11.132,0,0,0-3.73.618A8.858,8.858,0,0,0,2.953,1.693,6.653,6.653,0,0,0,.128,6.3,9.691,9.691,0,0,0,0,7.978v7.944H8.408c.1,0,.2.005.3.006l1.753.014H11.1q1.866.01,3.731.012h.039l4.266-.025,1.185-.008,2.119-.012H22.5l7.218.044h.036q1.779,0,3.558-.013h.607q.835,0,1.673-.013a10.137,10.137,0,0,0,3.555-.62A8.154,8.154,0,0,0,41.023,14.3c.017-.012.035-.023.052-.036A6.7,6.7,0,0,0,43.77,9.649a9.95,9.95,0,0,0,.122-1.671A9.966,9.966,0,0,0,43.77,6.3m-8.729,5.216H28.487V6.983h6.553a2.078,2.078,0,0,1,1.749.994,2.372,2.372,0,0,1,.365,1.274,2.2,2.2,0,0,1-2.114,2.269" transform="translate(0)" fill="#1db003"/></svg>