<svg xmlns="http://www.w3.org/2000/svg" width="16.035" height="13.845" viewBox="0 0 16.035 13.845"><path d="M14.3,1.306A4.248,4.248,0,0,0,11.2,0,4,4,0,0,0,8.755.814a4.9,4.9,0,0,0-.987.995A4.9,4.9,0,0,0,6.781.814,4,4,0,0,0,4.34,0,4.248,4.248,0,0,0,1.233,1.306,4.6,4.6,0,0,0,0,4.508,5.48,5.48,0,0,0,1.541,8.162a32.414,32.414,0,0,0,3.857,3.5c.534.44,1.14.938,1.769,1.469a.937.937,0,0,0,1.2,0C9,12.6,9.6,12.1,10.138,11.658a32.4,32.4,0,0,0,3.857-3.5,5.48,5.48,0,0,0,1.541-3.655,4.6,4.6,0,0,0-1.232-3.2Zm0,0" transform="translate(0.25 0.25)" fill="none" stroke="#fff" stroke-width="0.5"/></svg>