<svg xmlns="http://www.w3.org/2000/svg" xmlns:xlink="http://www.w3.org/1999/xlink" width="110" height="110" viewBox="0 0 110 110"><defs><linearGradient id="a" x1="0.5" y1="1" x2="0.5" gradientUnits="objectBoundingBox"><stop offset="0" stop-color="#e6b15c"/><stop offset="1" stop-color="#fff84e"/></linearGradient><filter id="b" x="0" y="0" width="110" height="110" filterUnits="userSpaceOnUse"><feOffset dy="8" input="SourceAlpha"/><feGaussianBlur stdDeviation="7.5" result="c"/><feFlood flood-color="#d59f26" flood-opacity="0.341"/><feComposite operator="in" in2="c"/><feComposite in="SourceGraphic"/></filter><linearGradient id="d" x1="0.5" x2="0.5" y2="0.277" gradientUnits="objectBoundingBox"><stop offset="0" stop-color="#fff"/><stop offset="1" stop-color="#fff" stop-opacity="0.82"/></linearGradient><filter id="e" x="36.705" y="27.059" width="37.213" height="27.605" filterUnits="userSpaceOnUse"><feOffset dy="8" input="SourceAlpha"/><feGaussianBlur stdDeviation="3" result="f"/><feFlood flood-color="#ff8900" flood-opacity="0.349"/><feComposite operator="in" in2="f"/><feComposite in="SourceGraphic"/></filter><linearGradient id="g" x1="0.5" x2="0.5" y2="1" gradientUnits="objectBoundingBox"><stop offset="0" stop-color="#fff"/><stop offset="1" stop-color="#fff" stop-opacity="0.412"/></linearGradient><filter id="h" x="29.5" y="31.861" width="51.622" height="51.622" filterUnits="userSpaceOnUse"><feOffset dy="8" input="SourceAlpha"/><feGaussianBlur stdDeviation="3" result="i"/><feFlood flood-color="#ff8900" flood-opacity="0.349"/><feComposite operator="in" in2="i"/><feComposite in="SourceGraphic"/></filter></defs><g transform="translate(-820.5 -477.229)"><g transform="matrix(1, 0, 0, 1, 820.5, 477.23)" filter="url(#b)"><circle cx="32.5" cy="32.5" r="32.5" transform="translate(22.5 14.5)" fill="url(#a)"/></g><g transform="matrix(1, 0, 0, 1, 820.5, 477.23)" filter="url(#e)"><path d="M71.426,4.8a.828.828,0,0,1-.818-.711,4.8,4.8,0,0,0-9.5,0,.828.828,0,0,1-.818.71H57.077a.827.827,0,0,0-.827.827V8.779a.827.827,0,0,0,.827.827H74.636a.827.827,0,0,0,.827-.827V5.63a.827.827,0,0,0-.827-.827ZM65.591,7.19A2.4,2.4,0,1,1,68.258,4.8,2.408,2.408,0,0,1,65.591,7.19" transform="translate(-10.55 28.06)" fill="url(#d)"/></g><g transform="matrix(1, 0, 0, 1, 820.5, 477.23)" filter="url(#h)"><path d="M28.818,38.752v4.681a1.262,1.262,0,0,1-1.262,1.262H6.066A1.262,1.262,0,0,1,4.8,43.433V38.752A1.262,1.262,0,0,0,3.543,37.49H1.262A1.262,1.262,0,0,0,0,38.752v31.1a1.262,1.262,0,0,0,1.262,1.262h31.1a1.262,1.262,0,0,0,1.262-1.262v-31.1A1.262,1.262,0,0,0,32.36,37.49H30.08a1.262,1.262,0,0,0-1.262,1.262M16.592,65.09a1.262,1.262,0,0,1-1.784,0L14,64.285l-5.9-5.9a1.262,1.262,0,0,1,0-1.785l1.611-1.611a1.262,1.262,0,0,1,1.784,0L14.807,58.3a1.262,1.262,0,0,0,1.785,0L24.5,50.391a1.262,1.262,0,0,1,1.785,0L27.894,52a1.262,1.262,0,0,1,0,1.785Z" transform="translate(38.5 -4.63)" fill="url(#g)"/></g></g></svg>