<svg xmlns="http://www.w3.org/2000/svg" xmlns:xlink="http://www.w3.org/1999/xlink" width="110" height="110" viewBox="0 0 110 110"><defs><linearGradient id="a" x1="0.5" y1="1" x2="0.5" gradientUnits="objectBoundingBox"><stop offset="0" stop-color="#77a5f8"/><stop offset="1" stop-color="#d5a3ff"/></linearGradient><filter id="b" x="0" y="0" width="110" height="110" filterUnits="userSpaceOnUse"><feOffset dy="8" input="SourceAlpha"/><feGaussianBlur stdDeviation="7.5" result="c"/><feFlood flood-color="#7a71e8" flood-opacity="0.341"/><feComposite operator="in" in2="c"/><feComposite in="SourceGraphic"/></filter><linearGradient id="d" x1="0.5" x2="0.5" y2="1" gradientUnits="objectBoundingBox"><stop offset="0" stop-color="#fff"/><stop offset="1" stop-color="#fff" stop-opacity="0.518"/></linearGradient><filter id="e" x="25.5" y="27.5" width="59" height="51.264" filterUnits="userSpaceOnUse"><feOffset dy="8" input="SourceAlpha"/><feGaussianBlur stdDeviation="3" result="f"/><feFlood flood-color="#0062ff" flood-opacity="0.345"/><feComposite operator="in" in2="f"/><feComposite in="SourceGraphic"/></filter></defs><g transform="translate(-175.5 -125.5)"><g transform="matrix(1, 0, 0, 1, 175.5, 125.5)" filter="url(#b)"><circle cx="32.5" cy="32.5" r="32.5" transform="translate(22.5 14.5)" fill="url(#a)"/></g><g transform="matrix(1, 0, 0, 1, 175.5, 125.5)" filter="url(#e)"><path d="M21.7,19.118V16.481H35.907V0H5.093V16.481H19.3v2.637H0V30.271H5.845v2.993h2.4V30.271h24.5v2.993h2.4V30.271H41V19.118Zm-6.907,6.075H11.465v-2.4h3.329Zm14.741,0H26.206v-2.4h3.329Zm0,0" transform="translate(34.5 28.5)" fill="url(#d)"/></g></g></svg>