<svg xmlns="http://www.w3.org/2000/svg" xmlns:xlink="http://www.w3.org/1999/xlink" width="110" height="110" viewBox="0 0 110 110"><defs><filter id="a" x="0" y="0" width="110" height="110" filterUnits="userSpaceOnUse"><feOffset dy="8" input="SourceAlpha"/><feGaussianBlur stdDeviation="7.5" result="b"/><feFlood flood-color="#e7eaf0"/><feComposite operator="in" in2="b"/><feComposite in="SourceGraphic"/></filter><clipPath id="c"><rect width="31.353" height="26.006" fill="#ff6969"/></clipPath></defs><g transform="translate(-9.5 -478.5)"><circle cx="32.5" cy="32.5" r="32.5" transform="translate(32 493)" fill="#fff"/><g transform="matrix(1, 0, 0, 1, 9.5, 478.5)" filter="url(#a)"><circle cx="32.5" cy="32.5" r="32.5" transform="translate(22.5 14.5)" fill="#fff"/></g><g transform="translate(48.824 512.497)" clip-path="url(#c)"><path d="M31.266,4.5A4.784,4.784,0,0,0,29.342,1.21,5.876,5.876,0,0,0,27.964.461,7.273,7.273,0,0,0,25.425.018q-.6-.006-1.195-.009H23.8Q22.526,0,21.255,0h-.026L16.073.032h-.046L10.62,0h-.028Q9.259,0,7.927.009H7.472q-.627,0-1.252.01A7.957,7.957,0,0,0,3.555.46,6.331,6.331,0,0,0,2.11,1.21,4.754,4.754,0,0,0,.092,4.5,6.932,6.932,0,0,0,0,5.7v5.675H6.007l.213,0,1.252.01h.455q1.333.007,2.665.008h.028l3.047-.018.846-.005,1.514-.008h.046l5.156.031h.026q1.271,0,2.541-.009h.434q.6,0,1.195-.009a7.246,7.246,0,0,0,2.539-.443,5.825,5.825,0,0,0,1.34-.722l.037-.026a4.784,4.784,0,0,0,1.924-3.294A7.1,7.1,0,0,0,31.353,5.7,7.111,7.111,0,0,0,31.266,4.5M25.031,8.23H20.35V4.988h4.681a1.485,1.485,0,0,1,1.249.71,1.7,1.7,0,0,1,.26.91,1.568,1.568,0,0,1-1.51,1.621" transform="translate(0)" fill="#ff6969"/><path d="M31.266,79.221a4.784,4.784,0,0,0-1.924-3.294,5.875,5.875,0,0,0-1.377-.748,7.274,7.274,0,0,0-2.539-.443q-.6-.006-1.195-.009H23.8q-1.271-.01-2.541-.009h-.026l-5.156.032h-.046l-5.407-.032h-.028q-1.333,0-2.665.009H7.472q-.627,0-1.252.01a7.957,7.957,0,0,0-2.664.441,6.331,6.331,0,0,0-1.446.749A4.754,4.754,0,0,0,.092,79.221,6.932,6.932,0,0,0,0,80.416V86.09H6.007l.213,0,1.252.01h.455q1.333.007,2.665.008h.028l3.047-.018.846-.005,1.514-.008h.046l5.156.031h.026q1.271,0,2.541-.009h.434q.6,0,1.195-.009a7.247,7.247,0,0,0,2.539-.443,5.825,5.825,0,0,0,1.34-.722l.037-.026a4.784,4.784,0,0,0,1.924-3.294,8.258,8.258,0,0,0,0-2.389m-6.235,3.726H20.35V79.705h4.681a1.485,1.485,0,0,1,1.249.71,1.7,1.7,0,0,1,.26.91,1.568,1.568,0,0,1-1.51,1.621" transform="translate(0 -60.107)" fill="#ff6969"/></g></g></svg>