<svg xmlns="http://www.w3.org/2000/svg" xmlns:xlink="http://www.w3.org/1999/xlink" width="110" height="110" viewBox="0 0 110 110"><defs><linearGradient id="a" x1="0.5" y1="1" x2="0.5" gradientUnits="objectBoundingBox"><stop offset="0" stop-color="#e6b15c"/><stop offset="1" stop-color="#fff84e"/></linearGradient><filter id="b" x="0" y="0" width="110" height="110" filterUnits="userSpaceOnUse"><feOffset dy="8" input="SourceAlpha"/><feGaussianBlur stdDeviation="7.5" result="c"/><feFlood flood-color="#d59f26" flood-opacity="0.341"/><feComposite operator="in" in2="c"/><feComposite in="SourceGraphic"/></filter><linearGradient id="d" x1="0.5" x2="0.5" y2="1" gradientUnits="objectBoundingBox"><stop offset="0" stop-color="#fff"/><stop offset="1" stop-color="#fff" stop-opacity="0.51"/></linearGradient><filter id="e" x="25.894" y="22.711" width="58.211" height="47.988" filterUnits="userSpaceOnUse"><feOffset dy="3" input="SourceAlpha"/><feGaussianBlur stdDeviation="3" result="f"/><feFlood flood-color="#9b6300" flood-opacity="0.518"/><feComposite operator="in" in2="f"/><feComposite in="SourceGraphic"/></filter><filter id="h" x="29.361" y="53.582" width="23.364" height="23.707" filterUnits="userSpaceOnUse"><feOffset dy="3" input="SourceAlpha"/><feGaussianBlur stdDeviation="3" result="i"/><feFlood flood-color="#9b6300" flood-opacity="0.518"/><feComposite operator="in" in2="i"/><feComposite in="SourceGraphic"/></filter><filter id="k" x="56.911" y="53.582" width="23.364" height="23.707" filterUnits="userSpaceOnUse"><feOffset dy="3" input="SourceAlpha"/><feGaussianBlur stdDeviation="3" result="l"/><feFlood flood-color="#9b6300" flood-opacity="0.518"/><feComposite operator="in" in2="l"/><feComposite in="SourceGraphic"/></filter></defs><g transform="translate(-518.5 -478.5)"><g transform="matrix(1, 0, 0, 1, 518.5, 478.5)" filter="url(#b)"><circle cx="32.5" cy="32.5" r="32.5" transform="translate(22.5 14.5)" fill="url(#a)"/></g><g transform="translate(19.394 -61.789)"><g transform="matrix(1, 0, 0, 1, 499.11, 540.29)" filter="url(#e)"><path d="M36.571,16.434H35.179L32.093,4.516a2.312,2.312,0,0,0-2.158-1.842h-6.1l-1-2.2A.769.769,0,0,0,22.142,0H18.069a.768.768,0,0,0-.687.476l-1,2.2h-6.1A2.312,2.312,0,0,0,8.118,4.516L5.032,16.434H3.641A3.926,3.926,0,0,0,0,20.594v6.868a2.385,2.385,0,0,0,2.211,2.527H38a2.385,2.385,0,0,0,2.211-2.527V20.594a3.926,3.926,0,0,0-3.641-4.16M10.451,6.239a1.565,1.565,0,0,1,1.461-1.247H28.3A1.565,1.565,0,0,1,29.76,6.239l2.639,10.2H7.812ZM8.264,22.759H4.972a1.634,1.634,0,0,1,0-3.239H8.264a1.634,1.634,0,0,1,0,3.239m26.976,0H31.948a1.634,1.634,0,0,1,0-3.239H35.24a1.634,1.634,0,0,1,0,3.239" transform="translate(34.89 28.71)" fill="url(#d)"/></g><g transform="matrix(1, 0, 0, 1, 499.11, 540.29)" filter="url(#h)"><path d="M7.911,84.311a1.506,1.506,0,0,0,1.457,1.55h2.45a1.506,1.506,0,0,0,1.457-1.55V80.154H7.911Z" transform="translate(30.45 -20.57)" fill="url(#d)"/></g><g transform="matrix(1, 0, 0, 1, 499.11, 540.29)" filter="url(#k)"><path d="M97.443,84.311a1.506,1.506,0,0,0,1.457,1.55h2.45a1.506,1.506,0,0,0,1.457-1.55V80.154H97.443Z" transform="translate(-31.53 -20.57)" fill="url(#d)"/></g></g></g></svg>