<svg xmlns="http://www.w3.org/2000/svg" width="34.332" height="29.873" viewBox="0 0 34.332 29.873"><path d="M29.123,2.659A8.649,8.649,0,0,0,22.8,0a8.14,8.14,0,0,0-4.97,1.657,9.979,9.979,0,0,0-2.009,2.026,9.974,9.974,0,0,0-2.01-2.026A8.139,8.139,0,0,0,8.837,0,8.65,8.65,0,0,0,2.51,2.659,9.359,9.359,0,0,0,0,9.179,11.159,11.159,0,0,0,3.138,16.62a66,66,0,0,0,7.853,7.117c1.088.9,2.322,1.911,3.6,2.992a1.907,1.907,0,0,0,2.445,0c1.281-1.081,2.515-2.1,3.6-2.993A65.963,65.963,0,0,0,28.5,16.62a11.158,11.158,0,0,0,3.137-7.441,9.358,9.358,0,0,0-2.509-6.519Zm0,0" transform="translate(1.35 1.35)" fill="none" stroke="#515c6f" stroke-width="2.7"/></svg>