<svg xmlns="http://www.w3.org/2000/svg" width="22.226" height="25.764" viewBox="0 0 22.226 25.764"><g transform="translate(0 1.496)"><g transform="translate(0)"><path d="M331.537,514.745a5.409,5.409,0,1,0-5.611-5.413A5.515,5.515,0,0,0,331.537,514.745Z" transform="translate(-320.313 -505.43)" fill="#727c8e"/><path d="M331.331,517.043l-.605,1.168.761,5.955L330.17,525.5l-1.316-1.331.732-5.955L329,517.042c-5.593.674-9.946,6.167-9.946,12.852a6.547,6.547,0,0,0,.025.706h22.174c.023-.234.027-.469.027-.706C341.283,523.211,336.93,517.719,331.331,517.043Z" transform="translate(-319.057 -506.332)" fill="#727c8e"/></g></g></svg>