<svg xmlns="http://www.w3.org/2000/svg" width="29.072" height="29.071" viewBox="0 0 29.072 29.071"><path d="M26.737,20.682a18.491,18.491,0,0,0-4.51-2.711,24.531,24.531,0,0,1-3.465-1.934,12.164,12.164,0,0,0,3.016-7.313A11.494,11.494,0,0,0,20.9,3.447C20.1,1.874,18.329,0,14.386,0S8.668,1.874,7.875,3.446a11.482,11.482,0,0,0-.882,5.278,12.155,12.155,0,0,0,3.016,7.313,24.41,24.41,0,0,1-3.465,1.934,18.5,18.5,0,0,0-4.51,2.711C.152,22.565.01,25.723,0,26.337a2.4,2.4,0,0,0,2.4,2.434H26.373a2.4,2.4,0,0,0,2.4-2.435C28.761,25.723,28.618,22.565,26.737,20.682Zm.064,6.112a.6.6,0,0,1-.428.179H2.4a.6.6,0,0,1-.426-.179.607.607,0,0,1-.173-.429c.005-.3.088-2.991,1.507-4.41A18.269,18.269,0,0,1,7.348,19.58a19.721,19.721,0,0,0,3.9-2.236L12.457,16.2,11.4,14.9A10.406,10.406,0,0,1,8.791,8.724,9.94,9.94,0,0,1,9.48,4.257C10.3,2.625,11.953,1.8,14.386,1.8s4.082.827,4.906,2.458a9.946,9.946,0,0,1,.688,4.468A10.4,10.4,0,0,1,17.366,14.9l-1.054,1.3,1.214,1.147a19.763,19.763,0,0,0,3.9,2.236,18.188,18.188,0,0,1,4.043,2.374,7.008,7.008,0,0,1,1.507,4.41A.6.6,0,0,1,26.8,26.794Z" transform="translate(0.15 0.15)" fill="#515c6f" stroke="#515c6f" stroke-width="0.3"/></svg>