<svg xmlns="http://www.w3.org/2000/svg" width="22.4" height="23.4" viewBox="0 0 22.4 23.4"><path d="M0,23V11.5A11.252,11.252,0,0,1,11,0,11.252,11.252,0,0,1,22,11.5,11.252,11.252,0,0,1,11,23ZM1.289,11.5V21.653H11A9.933,9.933,0,0,0,20.711,11.5,9.933,9.933,0,0,0,11,1.349,9.933,9.933,0,0,0,1.289,11.5ZM11,16.843l-4.514,1.8L6.729,13.6,3.7,9.668,8.361,8.351,11,4.12l2.639,4.231L18.3,9.668,15.271,13.6l.244,5.044Zm3.127-.195-.169-3.494,2.1-2.724-3.231-.912L11,6.588,9.171,9.519,5.94,10.43l2.1,2.724-.169,3.494L11,15.4Z" transform="translate(0.2 0.2)" fill="#727c8e" stroke="#727c8e" stroke-width="0.4"/></svg>