<svg xmlns="http://www.w3.org/2000/svg" width="21.344" height="23.059" viewBox="0 0 21.344 23.059"><path d="M5734.642-2814.29a4.349,4.349,0,0,1,.25-1.454l-5.195-2.949a4.341,4.341,0,0,1-3.347,1.574,4.356,4.356,0,0,1-4.352-4.35,4.356,4.356,0,0,1,4.352-4.35,4.341,4.341,0,0,1,3.347,1.574l5.195-2.95a4.348,4.348,0,0,1-.25-1.453,4.355,4.355,0,0,1,4.352-4.35,4.354,4.354,0,0,1,4.35,4.35,4.356,4.356,0,0,1-4.35,4.352,4.341,4.341,0,0,1-3.347-1.575l-5.2,2.95a4.323,4.323,0,0,1,.251,1.453,4.328,4.328,0,0,1-.251,1.453l5.2,2.951a4.343,4.343,0,0,1,3.347-1.575,4.356,4.356,0,0,1,4.35,4.352,4.355,4.355,0,0,1-4.35,4.35A4.356,4.356,0,0,1,5734.642-2814.29Z" transform="translate(-5722 2832.999)" fill="#b3b8c0"/></svg>