<svg xmlns="http://www.w3.org/2000/svg" xmlns:xlink="http://www.w3.org/1999/xlink" width="110" height="110" viewBox="0 0 110 110"><defs><linearGradient id="a" x1="0.5" y1="1" x2="0.5" gradientUnits="objectBoundingBox"><stop offset="0" stop-color="#2fc145"/><stop offset="1" stop-color="#b4ff4e"/></linearGradient><filter id="b" x="0" y="0" width="110" height="110" filterUnits="userSpaceOnUse"><feOffset dy="8" input="SourceAlpha"/><feGaussianBlur stdDeviation="7.5" result="c"/><feFlood flood-color="#26d555" flood-opacity="0.341"/><feComposite operator="in" in2="c"/><feComposite in="SourceGraphic"/></filter><linearGradient id="d" x1="0.5" x2="0.5" y2="1" gradientUnits="objectBoundingBox"><stop offset="0" stop-color="#fff"/><stop offset="1" stop-color="#fff" stop-opacity="0.51"/></linearGradient><filter id="e" x="27.114" y="62.448" width="55.771" height="20.562" filterUnits="userSpaceOnUse"><feOffset dy="8" input="SourceAlpha"/><feGaussianBlur stdDeviation="3" result="f"/><feFlood flood-color="#009b12" flood-opacity="0.518"/><feComposite operator="in" in2="f"/><feComposite in="SourceGraphic"/></filter><filter id="h" x="32.311" y="25.642" width="52.028" height="47.154" filterUnits="userSpaceOnUse"><feOffset dy="2" input="SourceAlpha"/><feGaussianBlur stdDeviation="3" result="i"/><feFlood flood-color="#186221" flood-opacity="0.518"/><feComposite operator="in" in2="i"/><feComposite in="SourceGraphic"/></filter></defs><g transform="translate(-175.5 -125.5)"><g transform="matrix(1, 0, 0, 1, 175.5, 125.5)" filter="url(#b)"><circle cx="32.5" cy="32.5" r="32.5" transform="translate(22.5 14.5)" fill="url(#a)"/></g><g transform="matrix(1, 0, 0, 1, 175.5, 125.5)" filter="url(#e)"><path d="M37.771,216.74a1.251,1.251,0,0,1-1.22,1.281H1.22a1.283,1.283,0,0,1,0-2.562H36.552a1.251,1.251,0,0,1,1.22,1.281" transform="translate(36.11 -152.01)" fill="url(#d)"/></g><g transform="matrix(1, 0, 0, 1, 175.5, 125.5)" filter="url(#h)"><path d="M77.393,5.253H71.3V1.625A1.625,1.625,0,0,0,69.68,0H48.135A1.625,1.625,0,0,0,46.51,1.625V27.583a1.627,1.627,0,0,0,1.677,1.571H69.628A1.627,1.627,0,0,0,71.3,27.583V24.495h6.088a3.091,3.091,0,0,0,3.145-3.027V8.281a3.091,3.091,0,0,0-3.145-3.028m.492,13.8A2.448,2.448,0,0,1,75.437,21.5H71.3V8.191h4.132a2.448,2.448,0,0,1,2.448,2.448Z" transform="translate(-5.2 32.64)" fill="url(#d)"/></g></g></svg>