<svg xmlns="http://www.w3.org/2000/svg" xmlns:xlink="http://www.w3.org/1999/xlink" width="102" height="102" viewBox="0 0 102 102">
  <defs>
    <clipPath id="clip-path">
      <path id="Path_36507" data-name="Path 36507" d="M51,0A51,51,0,1,1,0,51,51,51,0,0,1,51,0Z" transform="translate(138 100.849)" fill="#fff" stroke="#727c8e" stroke-width="3"/>
    </clipPath>
  </defs>
  <g id="Group_13438" data-name="Group 13438" transform="translate(-163 -148)">
    <g id="Mask_Group_1" data-name="Mask Group 1" transform="translate(25 47.151)" clip-path="url(#clip-path)">
      <circle id="Ellipse_3197" data-name="Ellipse 3197" cx="42.5" cy="42.5" r="42.5" transform="translate(147 155.849)" fill="#727c8e"/>
      <circle id="Ellipse_3198" data-name="Ellipse 3198" cx="17.5" cy="17.5" r="17.5" transform="translate(172 114.849)" fill="#727c8e"/>
    </g>
    <g id="Path_36508" data-name="Path 36508" transform="translate(163 148)" fill="none">
      <path d="M51,0A51,51,0,1,1,0,51,51,51,0,0,1,51,0Z" stroke="none"/>
      <path d="M 51 2 C 44.3841552734375 2 37.96728515625 3.295272827148438 31.92759704589844 5.849845886230469 C 26.09295654296875 8.31768798828125 20.85248565673828 11.85104370117188 16.35176849365234 16.35176849365234 C 11.85104370117188 20.85248565673828 8.31768798828125 26.09295654296875 5.849845886230469 31.92759704589844 C 3.295272827148438 37.96728515625 2 44.3841552734375 2 51 C 2 57.6158447265625 3.295272827148438 64.03271484375 5.849845886230469 70.07240295410156 C 8.31768798828125 75.90704345703125 11.85104370117188 81.14751434326172 16.35176849365234 85.64822387695312 C 20.85248565673828 90.14895629882812 26.09295654296875 93.68231201171875 31.92759704589844 96.15015411376953 C 37.96728515625 98.70472717285156 44.3841552734375 100 51 100 C 57.6158447265625 100 64.03271484375 98.70472717285156 70.07240295410156 96.15015411376953 C 75.90704345703125 93.68231201171875 81.14751434326172 90.14895629882812 85.64822387695312 85.64822387695312 C 90.14895629882812 81.14751434326172 93.68231201171875 75.90704345703125 96.15015411376953 70.07240295410156 C 98.70472717285156 64.03271484375 100 57.6158447265625 100 51 C 100 44.3841552734375 98.70472717285156 37.96728515625 96.15015411376953 31.92759704589844 C 93.68231201171875 26.09295654296875 90.14895629882812 20.85248565673828 85.64822387695312 16.35176849365234 C 81.14751434326172 11.85104370117188 75.90704345703125 8.31768798828125 70.07240295410156 5.849845886230469 C 64.03271484375 3.295272827148438 57.6158447265625 2 51 2 M 51 0 C 79.16651153564453 0 102 22.83348846435547 102 51 C 102 79.16651153564453 79.16651153564453 102 51 102 C 22.83348846435547 102 0 79.16651153564453 0 51 C 0 22.83348846435547 22.83348846435547 0 51 0 Z" stroke="none" fill="#727c8e"/>
    </g>
  </g>
</svg>
